# xmcd
#
# Track frame offsets:
#	151
#	14823
#	30625
#	46884
#	58412
#	73989
#	90237
#	103343
#	115475
#	129554
#
# Disc length: 1881 seconds
#
# Revision: 1
# Processed by: cddbd v1.5.2PL0 Copyright (c) Steve Scherf et al.
# Submitted via: audiograbber 1.83.01
#
DISCID=9407570a
DTITLE=Matthew Malone - Matthew Malone
DYEAR=2003
DGENRE=Country
TTITLE0=Beer Bottle Brown
TTITLE1=Thanks For Nothing
TTITLE2=I See What She Meant
TTITLE3=Honky Tonk Holiday
TTITLE4=Hard To Be Lonely
TTITLE5=Countryfied
TTITLE6=Whiskey Into Water
TTITLE7=Lakeside Hideaway
TTITLE8=I Pray There´s A Honky Tonk In Heaven
TTITLE9=She Don´t Kow She´s Loves Me
EXTD=
EXTT0=
EXTT1=
EXTT2=
EXTT3=
EXTT4=
EXTT5=
EXTT6=
EXTT7=
EXTT8=
EXTT9=
PLAYORDER=
